<mxfile host="app.diagrams.net" modified="2021-03-10T20:34:08.471Z" agent="5.0 (Windows NT 10.0; Win64; x64) AppleWebKit/537.36 (KHTML, like Gecko) Chrome/88.0.4324.190 Safari/537.36" etag="Gu2igIlWIHp6H99-IZGn" version="14.4.6" type="github" pages="2">
  <diagram id="va6UQ6kQYev4y7fz3iW5" name="Page-1">
    <mxGraphModel dx="1108" dy="482" grid="1" gridSize="10" guides="1" tooltips="1" connect="1" arrows="1" fold="1" page="1" pageScale="1" pageWidth="827" pageHeight="1169" math="0" shadow="0">
      <root>
        <mxCell id="0" />
        <mxCell id="1" parent="0" />
        <mxCell id="Z0A67WeXVm1Wl0f02Ya7-1" value="Játékos" style="shape=umlActor;verticalLabelPosition=bottom;verticalAlign=top;html=1;" parent="1" vertex="1">
          <mxGeometry x="490" y="280" width="30" height="60" as="geometry" />
        </mxCell>
        <mxCell id="Z0A67WeXVm1Wl0f02Ya7-2" value="Kontroller" style="shape=umlActor;verticalLabelPosition=bottom;verticalAlign=top;html=1;" parent="1" vertex="1">
          <mxGeometry x="620" y="265" width="30" height="60" as="geometry" />
        </mxCell>
        <mxCell id="Z0A67WeXVm1Wl0f02Ya7-8" value="&lt;font style=&quot;font-size: 12px&quot;&gt;&lt;span lang=&quot;HU-HU&quot; class=&quot;TextRun SCXW227858464 BCX0&quot; style=&quot;margin: 0px ; padding: 0px ; text-align: left ; background-color: rgb(255 , 255 , 255) ; line-height: 19.425px ; font-family: &amp;#34;times new roman&amp;#34; , &amp;#34;times new roman_embeddedfont&amp;#34; , &amp;#34;times new roman_msfontservice&amp;#34; , serif&quot;&gt;Telepes lerak uránt&amp;nbsp;&lt;/span&gt;&lt;/font&gt;" style="ellipse;whiteSpace=wrap;html=1;" parent="1" vertex="1">
          <mxGeometry x="30" y="240" width="170" height="30" as="geometry" />
        </mxCell>
        <mxCell id="Z0A67WeXVm1Wl0f02Ya7-9" value="&lt;font style=&quot;font-size: 12px&quot;&gt;&lt;span lang=&quot;HU-HU&quot; class=&quot;TextRun SCXW105076345 BCX0&quot; style=&quot;margin: 0px ; padding: 0px ; text-align: left ; background-color: rgb(255 , 255 , 255) ; line-height: 19.425px ; font-family: &amp;#34;times new roman&amp;#34; , &amp;#34;times new roman_embeddedfont&amp;#34; , &amp;#34;times new roman_msfontservice&amp;#34; , serif&quot;&gt;Telepes lerak vízjeget&lt;/span&gt;&lt;/font&gt;" style="ellipse;whiteSpace=wrap;html=1;" parent="1" vertex="1">
          <mxGeometry x="40" y="190" width="150" height="30" as="geometry" />
        </mxCell>
        <mxCell id="Z0A67WeXVm1Wl0f02Ya7-11" value="&lt;font style=&quot;font-size: 12px&quot;&gt;&lt;span lang=&quot;HU-HU&quot; class=&quot;TextRun SCXW112848725 BCX0&quot; style=&quot;margin: 0px ; padding: 0px ; text-align: left ; background-color: rgb(255 , 255 , 255) ; line-height: 19.425px ; font-family: &amp;#34;times new roman&amp;#34; , &amp;#34;times new roman_embeddedfont&amp;#34; , &amp;#34;times new roman_msfontservice&amp;#34; , serif&quot;&gt;Telepes mozog&amp;nbsp;&lt;/span&gt;&lt;span lang=&quot;HU-HU&quot; class=&quot;TextRun SCXW112848725 BCX0&quot; style=&quot;margin: 0px ; padding: 0px ; text-align: left ; background-color: rgb(255 , 255 , 255) ; line-height: 19.425px ; font-family: &amp;#34;times new roman&amp;#34; , &amp;#34;times new roman_embeddedfont&amp;#34; , &amp;#34;times new roman_msfontservice&amp;#34; , serif&quot;&gt;&lt;span class=&quot;SpellingError SCXW112848725 BCX0&quot; style=&quot;margin: 0px ; padding: 0px ; background-repeat: repeat-x ; background-position: left bottom ; background-image: url(&amp;#34;data:image/gif;base64,R0lGODlhBQAEAJECAP////8AAAAAAAAAACH5BAEAAAIALAAAAAAFAAQAAAIIlGAXCCHrTCgAOw==&amp;#34;) ; border-bottom: 1px solid transparent ; background-color: inherit&quot;&gt;teleportkapun&lt;/span&gt;&lt;/span&gt;&lt;span lang=&quot;HU-HU&quot; class=&quot;TextRun SCXW112848725 BCX0&quot; style=&quot;margin: 0px ; padding: 0px ; text-align: left ; background-color: rgb(255 , 255 , 255) ; line-height: 19.425px ; font-family: &amp;#34;times new roman&amp;#34; , &amp;#34;times new roman_embeddedfont&amp;#34; , &amp;#34;times new roman_msfontservice&amp;#34; , serif&quot;&gt;&amp;nbsp;keresztül&lt;/span&gt;&lt;/font&gt;" style="ellipse;whiteSpace=wrap;html=1;" parent="1" vertex="1">
          <mxGeometry x="30" y="140" width="210" height="30" as="geometry" />
        </mxCell>
        <mxCell id="Z0A67WeXVm1Wl0f02Ya7-12" value="&lt;span lang=&quot;HU-HU&quot; class=&quot;TextRun SCXW30562427 BCX0&quot; style=&quot;animation: 0s ease 0s 1 normal none running none ; appearance: none ; backface-visibility: visible ; background: none 0% 0% / auto repeat scroll padding-box border-box rgba(0 , 0 , 0 , 0) ; border: 0px none rgb(0 , 0 , 0) ; border-radius: 0px ; border-collapse: separate ; box-shadow: none ; box-sizing: content-box ; caption-side: top ; clear: none ; clip: auto ; content: normal ; cursor: text ; direction: ltr ; display: inline ; empty-cells: show ; float: none ; font-family: &amp;#34;wordvisi_msfontservice&amp;#34; , &amp;#34;times new roman&amp;#34; , &amp;#34;times new roman_embeddedfont&amp;#34; , &amp;#34;times new roman_msfontservice&amp;#34; , serif ; height: auto ; line-height: 19.425px ; list-style: outside none disc ; margin: 0px ; max-height: none ; max-width: none ; min-height: 0px ; min-width: 0px ; opacity: 1 ; outline: rgb(0 , 0 , 0) none 0px ; overflow-wrap: break-word ; overflow: visible ; padding: 0px ; perspective: none ; perspective-origin: 0px 0px ; position: static ; resize: none ; speak: normal ; table-layout: auto ; text-align: left ; text-overflow: clip ; text-shadow: none ; transform: none ; transform-origin: 0px 0px ; transform-style: flat ; transition: all 0s ease 0s ; unicode-bidi: normal ; vertical-align: baseline ; visibility: visible ; width: auto ; word-break: normal ; z-index: auto ; zoom: 1 ; border-spacing: 0px&quot;&gt;&lt;span class=&quot;NormalTextRun SCXW30562427 BCX0&quot; style=&quot;background-color: inherit&quot;&gt;&lt;font style=&quot;font-size: 12px&quot;&gt;Telepes&amp;nbsp;&amp;nbsp;mozog szomszédos aszteroidára&lt;/font&gt;&lt;/span&gt;&lt;/span&gt;" style="ellipse;whiteSpace=wrap;html=1;" parent="1" vertex="1">
          <mxGeometry x="50" y="90" width="210" height="35" as="geometry" />
        </mxCell>
        <mxCell id="Z0A67WeXVm1Wl0f02Ya7-15" value="&lt;font style=&quot;font-size: 12px&quot;&gt;&lt;span lang=&quot;HU-HU&quot; class=&quot;TextRun SCXW157749278 BCX0&quot; style=&quot;margin: 0px ; padding: 0px ; text-align: left ; background-color: rgb(255 , 255 , 255) ; line-height: 19.425px ; font-family: &amp;#34;times new roman&amp;#34; , &amp;#34;times new roman_embeddedfont&amp;#34; , &amp;#34;times new roman_msfontservice&amp;#34; , serif&quot;&gt;&lt;span class=&quot;ContextualSpellingAndGrammarError SCXW157749278 BCX0&quot; style=&quot;margin: 0px ; padding: 0px ; background-repeat: repeat-x ; background-position: left bottom ; background-image: url(&amp;#34;data:image/gif;base64,R0lGODlhBQAEAPEDAABVzDNVzDNV/wAAACH5BAUAAAMALAAAAAAFAAQAAAIInC2QchYKQgEAOw==&amp;#34;) ; border-bottom: 1px solid transparent ; background-color: inherit&quot;&gt;Telepes&lt;/span&gt;&lt;/span&gt;&lt;span lang=&quot;HU-HU&quot; class=&quot;TextRun SCXW157749278 BCX0&quot; style=&quot;margin: 0px ; padding: 0px ; text-align: left ; background-color: rgb(255 , 255 , 255) ; line-height: 19.425px ; font-family: &amp;#34;times new roman&amp;#34; , &amp;#34;times new roman_embeddedfont&amp;#34; , &amp;#34;times new roman_msfontservice&amp;#34; , serif&quot;&gt;&amp;nbsp;bányászik aszteroidán&lt;/span&gt;&lt;/font&gt;" style="ellipse;whiteSpace=wrap;html=1;" parent="1" vertex="1">
          <mxGeometry x="40" y="380" width="190" height="30" as="geometry" />
        </mxCell>
        <mxCell id="Z0A67WeXVm1Wl0f02Ya7-18" value="&lt;font style=&quot;font-size: 12px&quot;&gt;&lt;span lang=&quot;HU-HU&quot; class=&quot;TextRun SCXW256050835 BCX0&quot; style=&quot;margin: 0px ; padding: 0px ; text-align: left ; background-color: rgb(255 , 255 , 255) ; line-height: 19.425px ; font-family: &amp;#34;times new roman&amp;#34; , &amp;#34;times new roman_embeddedfont&amp;#34; , &amp;#34;times new roman_msfontservice&amp;#34; , serif&quot;&gt;Telepes fúrja a vízjeget tartalmazó aszteroidát&amp;nbsp;&lt;/span&gt;&lt;/font&gt;" style="ellipse;whiteSpace=wrap;html=1;" parent="1" vertex="1">
          <mxGeometry x="130" y="40" width="260" height="30" as="geometry" />
        </mxCell>
        <mxCell id="Z0A67WeXVm1Wl0f02Ya7-20" value="&lt;font style=&quot;font-size: 12px&quot;&gt;&lt;span lang=&quot;HU-HU&quot; class=&quot;TextRun SCXW151800768 BCX0&quot; style=&quot;margin: 0px ; padding: 0px ; text-align: left ; background-color: rgb(255 , 255 , 255) ; line-height: 19.425px ; font-family: &amp;#34;times new roman&amp;#34; , &amp;#34;times new roman_embeddedfont&amp;#34; , &amp;#34;times new roman_msfontservice&amp;#34; , serif&quot;&gt;Telepes&amp;nbsp;&lt;/span&gt;&lt;span lang=&quot;HU-HU&quot; class=&quot;TextRun SCXW151800768 BCX0&quot; style=&quot;margin: 0px ; padding: 0px ; text-align: left ; background-color: rgb(255 , 255 , 255) ; line-height: 19.425px ; font-family: &amp;#34;times new roman&amp;#34; , &amp;#34;times new roman_embeddedfont&amp;#34; , &amp;#34;times new roman_msfontservice&amp;#34; , serif&quot;&gt;fúrja az uránt tartalmazó aszteroidát&amp;nbsp;&lt;/span&gt;&lt;/font&gt;" style="ellipse;whiteSpace=wrap;html=1;" parent="1" vertex="1">
          <mxGeometry x="400" y="60" width="250" height="30" as="geometry" />
        </mxCell>
        <mxCell id="Z0A67WeXVm1Wl0f02Ya7-23" value="&lt;font style=&quot;font-size: 12px&quot;&gt;&lt;span lang=&quot;HU-HU&quot; class=&quot;TextRun SCXW175453373 BCX0&quot; style=&quot;margin: 0px ; padding: 0px ; color: rgb(0 , 0 , 0) ; font-style: normal ; font-weight: 400 ; letter-spacing: normal ; text-align: left ; text-indent: 0px ; text-transform: none ; word-spacing: 0px ; background-color: rgb(255 , 255 , 255) ; line-height: 19.425px ; font-family: &amp;#34;times new roman&amp;#34; , &amp;#34;times new roman_embeddedfont&amp;#34; , &amp;#34;times new roman_msfontservice&amp;#34; , serif&quot;&gt;&lt;span class=&quot;NormalTextRun SCXW175453373 BCX0&quot; style=&quot;margin: 0px ; padding: 0px ; background-color: inherit&quot;&gt;Telepes robotot épít&lt;/span&gt;&lt;/span&gt;&lt;span class=&quot;EOP SCXW175453373 BCX0&quot; style=&quot;margin: 0px ; padding: 0px ; color: rgb(0 , 0 , 0) ; font-style: normal ; font-weight: 400 ; letter-spacing: normal ; text-align: left ; text-indent: 0px ; text-transform: none ; word-spacing: 0px ; background-color: rgb(255 , 255 , 255) ; line-height: 19.425px ; font-family: &amp;#34;times new roman&amp;#34; , &amp;#34;times new roman_embeddedfont&amp;#34; , &amp;#34;times new roman_msfontservice&amp;#34; , serif&quot;&gt;&amp;nbsp;&lt;/span&gt;&lt;/font&gt;" style="ellipse;whiteSpace=wrap;html=1;" parent="1" vertex="1">
          <mxGeometry x="400" y="460" width="130" height="30" as="geometry" />
        </mxCell>
        <mxCell id="Z0A67WeXVm1Wl0f02Ya7-26" value="&lt;font style=&quot;font-size: 12px&quot;&gt;&lt;span lang=&quot;HU-HU&quot; class=&quot;TextRun SCXW80752651 BCX0&quot; style=&quot;margin: 0px ; padding: 0px ; text-align: left ; background-color: rgb(255 , 255 , 255) ; line-height: 19.425px ; font-family: &amp;#34;times new roman&amp;#34; , &amp;#34;times new roman_embeddedfont&amp;#34; , &amp;#34;times new roman_msfontservice&amp;#34; , serif&quot;&gt;Telepes&amp;nbsp;&lt;/span&gt;&lt;span lang=&quot;HU-HU&quot; class=&quot;TextRun SCXW80752651 BCX0&quot; style=&quot;margin: 0px ; padding: 0px ; text-align: left ; background-color: rgb(255 , 255 , 255) ; line-height: 19.425px ; font-family: &amp;#34;times new roman&amp;#34; , &amp;#34;times new roman_embeddedfont&amp;#34; , &amp;#34;times new roman_msfontservice&amp;#34; , serif&quot;&gt;&lt;span class=&quot;SpellingError SCXW80752651 BCX0&quot; style=&quot;margin: 0px ; padding: 0px ; background-repeat: repeat-x ; background-position: left bottom ; background-image: url(&amp;#34;data:image/gif;base64,R0lGODlhBQAEAJECAP////8AAAAAAAAAACH5BAEAAAIALAAAAAAFAAQAAAIIlGAXCCHrTCgAOw==&amp;#34;) ; border-bottom: 1px solid transparent ; background-color: inherit&quot;&gt;teleportkaput&lt;/span&gt;&lt;/span&gt;&lt;span lang=&quot;HU-HU&quot; class=&quot;TextRun SCXW80752651 BCX0&quot; style=&quot;margin: 0px ; padding: 0px ; text-align: left ; background-color: rgb(255 , 255 , 255) ; line-height: 19.425px ; font-family: &amp;#34;times new roman&amp;#34; , &amp;#34;times new roman_embeddedfont&amp;#34; , &amp;#34;times new roman_msfontservice&amp;#34; , serif&quot;&gt;&amp;nbsp;épít&lt;/span&gt;&lt;/font&gt;" style="ellipse;whiteSpace=wrap;html=1;" parent="1" vertex="1">
          <mxGeometry x="240" y="460" width="150" height="30" as="geometry" />
        </mxCell>
        <mxCell id="Z0A67WeXVm1Wl0f02Ya7-28" value="&lt;font style=&quot;font-size: 12px&quot;&gt;&lt;span lang=&quot;HU-HU&quot; class=&quot;TextRun SCXW67012334 BCX0&quot; style=&quot;margin: 0px ; padding: 0px ; color: rgb(0 , 0 , 0) ; font-style: normal ; font-weight: 400 ; letter-spacing: normal ; text-align: left ; text-indent: 0px ; text-transform: none ; word-spacing: 0px ; background-color: rgb(255 , 255 , 255) ; line-height: 19.425px ; font-family: &amp;#34;times new roman&amp;#34; , &amp;#34;times new roman_embeddedfont&amp;#34; , &amp;#34;times new roman_msfontservice&amp;#34; , serif&quot;&gt;&lt;span class=&quot;NormalTextRun SCXW67012334 BCX0&quot; style=&quot;margin: 0px ; padding: 0px ; background-color: inherit&quot;&gt;Telepes lerak&lt;span&gt;&amp;nbsp;&lt;/span&gt;&lt;/span&gt;&lt;/span&gt;&lt;span lang=&quot;HU-HU&quot; class=&quot;TextRun SCXW67012334 BCX0&quot; style=&quot;margin: 0px ; padding: 0px ; color: rgb(0 , 0 , 0) ; font-style: normal ; font-weight: 400 ; letter-spacing: normal ; text-align: left ; text-indent: 0px ; text-transform: none ; word-spacing: 0px ; background-color: rgb(255 , 255 , 255) ; line-height: 19.425px ; font-family: &amp;#34;times new roman&amp;#34; , &amp;#34;times new roman_embeddedfont&amp;#34; , &amp;#34;times new roman_msfontservice&amp;#34; , serif&quot;&gt;&lt;span class=&quot;SpellingError SCXW67012334 BCX0&quot; style=&quot;margin: 0px ; padding: 0px ; background-repeat: repeat-x ; background-position: left bottom ; background-image: url(&amp;#34;data:image/gif;base64,R0lGODlhBQAEAJECAP////8AAAAAAAAAACH5BAEAAAIALAAAAAAFAAQAAAIIlGAXCCHrTCgAOw==&amp;#34;) ; border-bottom: 1px solid transparent ; background-color: inherit&quot;&gt;teleportkaput&lt;/span&gt;&lt;/span&gt;&lt;br&gt;&lt;/font&gt;" style="ellipse;whiteSpace=wrap;html=1;" parent="1" vertex="1">
          <mxGeometry x="140" y="420" width="170" height="30" as="geometry" />
        </mxCell>
        <mxCell id="Z0A67WeXVm1Wl0f02Ya7-32" value="&lt;span lang=&quot;HU-HU&quot; class=&quot;TextRun SCXW252920641 BCX0&quot; style=&quot;animation: 0s ease 0s 1 normal none running none ; appearance: none ; backface-visibility: visible ; background: none 0% 0% / auto repeat scroll padding-box border-box rgba(0 , 0 , 0 , 0) ; border: 0px none rgb(0 , 0 , 0) ; border-radius: 0px ; border-collapse: separate ; box-shadow: none ; box-sizing: content-box ; caption-side: top ; clear: none ; clip: auto ; content: normal ; cursor: text ; direction: ltr ; display: inline ; empty-cells: show ; float: none ; font-family: &amp;#34;wordvisi_msfontservice&amp;#34; , &amp;#34;times new roman&amp;#34; , &amp;#34;times new roman_embeddedfont&amp;#34; , &amp;#34;times new roman_msfontservice&amp;#34; , serif ; height: auto ; line-height: 19.425px ; list-style: outside none disc ; margin: 0px ; max-height: none ; max-width: none ; min-height: 0px ; min-width: 0px ; opacity: 1 ; outline: rgb(0 , 0 , 0) none 0px ; overflow-wrap: break-word ; overflow: visible ; padding: 0px ; perspective: none ; perspective-origin: 0px 0px ; position: static ; resize: none ; speak: normal ; table-layout: auto ; text-align: left ; text-overflow: clip ; text-shadow: none ; transform: none ; transform-origin: 0px 0px ; transform-style: flat ; transition: all 0s ease 0s ; unicode-bidi: normal ; vertical-align: baseline ; visibility: visible ; width: auto ; word-break: normal ; z-index: auto ; zoom: 1 ; border-spacing: 0px&quot;&gt;&lt;span class=&quot;NormalTextRun SCXW252920641 BCX0&quot; style=&quot;background-color: inherit&quot;&gt;&lt;font style=&quot;font-size: 12px&quot;&gt;Napvihar olyan aszteroidát ér, amin van telepes&amp;nbsp;&lt;/font&gt;&lt;/span&gt;&lt;/span&gt;" style="ellipse;whiteSpace=wrap;html=1;" parent="1" vertex="1">
          <mxGeometry x="827" y="340" width="250" height="30" as="geometry" />
        </mxCell>
        <mxCell id="Z0A67WeXVm1Wl0f02Ya7-36" value="" style="endArrow=none;html=1;entryX=1;entryY=1;entryDx=0;entryDy=0;" parent="1" source="Z0A67WeXVm1Wl0f02Ya7-1" target="Z0A67WeXVm1Wl0f02Ya7-18" edge="1">
          <mxGeometry width="50" height="50" relative="1" as="geometry">
            <mxPoint x="500" y="270" as="sourcePoint" />
            <mxPoint x="475" y="150" as="targetPoint" />
          </mxGeometry>
        </mxCell>
        <mxCell id="Z0A67WeXVm1Wl0f02Ya7-39" value="" style="endArrow=none;html=1;entryX=1;entryY=0.5;entryDx=0;entryDy=0;" parent="1" source="Z0A67WeXVm1Wl0f02Ya7-1" target="Z0A67WeXVm1Wl0f02Ya7-11" edge="1">
          <mxGeometry width="50" height="50" relative="1" as="geometry">
            <mxPoint x="480" y="290" as="sourcePoint" />
            <mxPoint x="310" y="210" as="targetPoint" />
          </mxGeometry>
        </mxCell>
        <mxCell id="Z0A67WeXVm1Wl0f02Ya7-40" value="" style="endArrow=none;html=1;entryX=1;entryY=0.5;entryDx=0;entryDy=0;" parent="1" source="Z0A67WeXVm1Wl0f02Ya7-1" target="Z0A67WeXVm1Wl0f02Ya7-12" edge="1">
          <mxGeometry width="50" height="50" relative="1" as="geometry">
            <mxPoint x="490" y="270" as="sourcePoint" />
            <mxPoint x="344" y="180" as="targetPoint" />
          </mxGeometry>
        </mxCell>
        <mxCell id="Z0A67WeXVm1Wl0f02Ya7-44" value="" style="endArrow=none;html=1;entryX=1;entryY=0.5;entryDx=0;entryDy=0;" parent="1" source="Z0A67WeXVm1Wl0f02Ya7-1" target="Z0A67WeXVm1Wl0f02Ya7-9" edge="1">
          <mxGeometry width="50" height="50" relative="1" as="geometry">
            <mxPoint x="480" y="300" as="sourcePoint" />
            <mxPoint x="330" y="250" as="targetPoint" />
          </mxGeometry>
        </mxCell>
        <mxCell id="Z0A67WeXVm1Wl0f02Ya7-50" value="" style="endArrow=none;html=1;entryX=1;entryY=0.5;entryDx=0;entryDy=0;" parent="1" source="Z0A67WeXVm1Wl0f02Ya7-1" target="Z0A67WeXVm1Wl0f02Ya7-8" edge="1">
          <mxGeometry width="50" height="50" relative="1" as="geometry">
            <mxPoint x="490" y="310" as="sourcePoint" />
            <mxPoint x="340" y="305" as="targetPoint" />
          </mxGeometry>
        </mxCell>
        <mxCell id="Z0A67WeXVm1Wl0f02Ya7-51" value="" style="endArrow=none;html=1;entryX=1;entryY=0.5;entryDx=0;entryDy=0;" parent="1" source="Z0A67WeXVm1Wl0f02Ya7-1" target="Z0A67WeXVm1Wl0f02Ya7-15" edge="1">
          <mxGeometry width="50" height="50" relative="1" as="geometry">
            <mxPoint x="490" y="330" as="sourcePoint" />
            <mxPoint x="420" y="380" as="targetPoint" />
          </mxGeometry>
        </mxCell>
        <mxCell id="Z0A67WeXVm1Wl0f02Ya7-53" value="" style="endArrow=none;html=1;" parent="1" source="Z0A67WeXVm1Wl0f02Ya7-1" target="Z0A67WeXVm1Wl0f02Ya7-28" edge="1">
          <mxGeometry width="50" height="50" relative="1" as="geometry">
            <mxPoint x="480" y="350" as="sourcePoint" />
            <mxPoint x="470" y="420" as="targetPoint" />
          </mxGeometry>
        </mxCell>
        <mxCell id="Z0A67WeXVm1Wl0f02Ya7-57" value="" style="endArrow=none;html=1;entryX=0;entryY=0.5;entryDx=0;entryDy=0;" parent="1" source="Z0A67WeXVm1Wl0f02Ya7-2" target="Z0A67WeXVm1Wl0f02Ya7-72" edge="1">
          <mxGeometry width="50" height="50" relative="1" as="geometry">
            <mxPoint x="670" y="330" as="sourcePoint" />
            <mxPoint x="697" y="400" as="targetPoint" />
          </mxGeometry>
        </mxCell>
        <mxCell id="Z0A67WeXVm1Wl0f02Ya7-63" value="" style="endArrow=none;html=1;entryX=0;entryY=0.5;entryDx=0;entryDy=0;" parent="1" source="Z0A67WeXVm1Wl0f02Ya7-2" target="Z0A67WeXVm1Wl0f02Ya7-32" edge="1">
          <mxGeometry width="50" height="50" relative="1" as="geometry">
            <mxPoint x="670" y="320" as="sourcePoint" />
            <mxPoint x="690" y="237.5" as="targetPoint" />
          </mxGeometry>
        </mxCell>
        <mxCell id="Z0A67WeXVm1Wl0f02Ya7-70" value="" style="endArrow=none;html=1;" parent="1" source="Z0A67WeXVm1Wl0f02Ya7-1" target="Z0A67WeXVm1Wl0f02Ya7-26" edge="1">
          <mxGeometry width="50" height="50" relative="1" as="geometry">
            <mxPoint x="480" y="370" as="sourcePoint" />
            <mxPoint x="215" y="340" as="targetPoint" />
          </mxGeometry>
        </mxCell>
        <mxCell id="Z0A67WeXVm1Wl0f02Ya7-71" value="" style="endArrow=none;html=1;" parent="1" source="Z0A67WeXVm1Wl0f02Ya7-1" target="Z0A67WeXVm1Wl0f02Ya7-23" edge="1">
          <mxGeometry width="50" height="50" relative="1" as="geometry">
            <mxPoint x="490" y="380" as="sourcePoint" />
            <mxPoint x="290" y="405" as="targetPoint" />
          </mxGeometry>
        </mxCell>
        <mxCell id="Z0A67WeXVm1Wl0f02Ya7-72" value="&lt;span lang=&quot;HU-HU&quot; class=&quot;TextRun SCXW252920641 BCX0&quot; style=&quot;animation: 0s ease 0s 1 normal none running none ; appearance: none ; backface-visibility: visible ; background: none 0% 0% / auto repeat scroll padding-box border-box rgba(0 , 0 , 0 , 0) ; border: 0px none rgb(0 , 0 , 0) ; border-radius: 0px ; border-collapse: separate ; box-shadow: none ; box-sizing: content-box ; caption-side: top ; clear: none ; clip: auto ; content: normal ; cursor: text ; direction: ltr ; display: inline ; empty-cells: show ; float: none ; font-family: &amp;#34;wordvisi_msfontservice&amp;#34; , &amp;#34;times new roman&amp;#34; , &amp;#34;times new roman_embeddedfont&amp;#34; , &amp;#34;times new roman_msfontservice&amp;#34; , serif ; height: auto ; line-height: 19.425px ; list-style: outside none disc ; margin: 0px ; max-height: none ; max-width: none ; min-height: 0px ; min-width: 0px ; opacity: 1 ; outline: rgb(0 , 0 , 0) none 0px ; overflow-wrap: break-word ; overflow: visible ; padding: 0px ; perspective: none ; perspective-origin: 0px 0px ; position: static ; resize: none ; speak: normal ; table-layout: auto ; text-align: left ; text-overflow: clip ; text-shadow: none ; transform: none ; transform-origin: 0px 0px ; transform-style: flat ; transition: all 0s ease 0s ; unicode-bidi: normal ; vertical-align: baseline ; visibility: visible ; width: auto ; word-break: normal ; z-index: auto ; zoom: 1 ; border-spacing: 0px&quot;&gt;&lt;span class=&quot;NormalTextRun SCXW252920641 BCX0&quot; style=&quot;background-color: inherit&quot;&gt;&lt;font style=&quot;font-size: 12px&quot;&gt;Napvihar olyan aszteroidát ér, amin van robot&lt;/font&gt;&lt;/span&gt;&lt;/span&gt;" style="ellipse;whiteSpace=wrap;html=1;" parent="1" vertex="1">
          <mxGeometry x="827" y="390" width="250" height="40" as="geometry" />
        </mxCell>
        <mxCell id="Z0A67WeXVm1Wl0f02Ya7-73" value="" style="endArrow=none;html=1;" parent="1" source="Z0A67WeXVm1Wl0f02Ya7-1" target="Z0A67WeXVm1Wl0f02Ya7-20" edge="1">
          <mxGeometry width="50" height="50" relative="1" as="geometry">
            <mxPoint x="510" y="260" as="sourcePoint" />
            <mxPoint x="506" y="159" as="targetPoint" />
          </mxGeometry>
        </mxCell>
        <mxCell id="Z0A67WeXVm1Wl0f02Ya7-74" value="&lt;font style=&quot;font-size: 12px&quot;&gt;&lt;span lang=&quot;HU-HU&quot; class=&quot;TextRun SCXW256050835 BCX0&quot; style=&quot;margin: 0px ; padding: 0px ; text-align: left ; background-color: rgb(255 , 255 , 255) ; line-height: 19.425px ; font-family: &amp;#34;times new roman&amp;#34; , &amp;#34;times new roman_embeddedfont&amp;#34; , &amp;#34;times new roman_msfontservice&amp;#34; , serif&quot;&gt;Robot fúrja a vízjeget tartalmazó aszteroidát&amp;nbsp;&lt;/span&gt;&lt;/font&gt;" style="ellipse;whiteSpace=wrap;html=1;" parent="1" vertex="1">
          <mxGeometry x="640" y="100" width="270" height="30" as="geometry" />
        </mxCell>
        <mxCell id="Z0A67WeXVm1Wl0f02Ya7-75" value="&lt;font style=&quot;font-size: 12px&quot;&gt;&lt;span lang=&quot;HU-HU&quot; class=&quot;TextRun SCXW151800768 BCX0&quot; style=&quot;margin: 0px ; padding: 0px ; text-align: left ; background-color: rgb(255 , 255 , 255) ; line-height: 19.425px ; font-family: &amp;#34;times new roman&amp;#34; , &amp;#34;times new roman_embeddedfont&amp;#34; , &amp;#34;times new roman_msfontservice&amp;#34; , serif&quot;&gt;Robot&amp;nbsp;&lt;/span&gt;&lt;span lang=&quot;HU-HU&quot; class=&quot;TextRun SCXW151800768 BCX0&quot; style=&quot;margin: 0px ; padding: 0px ; text-align: left ; background-color: rgb(255 , 255 , 255) ; line-height: 19.425px ; font-family: &amp;#34;times new roman&amp;#34; , &amp;#34;times new roman_embeddedfont&amp;#34; , &amp;#34;times new roman_msfontservice&amp;#34; , serif&quot;&gt;fúrja az uránt tartalmazó aszteroidát&amp;nbsp;&lt;/span&gt;&lt;/font&gt;" style="ellipse;whiteSpace=wrap;html=1;" parent="1" vertex="1">
          <mxGeometry x="730" y="150" width="250" height="30" as="geometry" />
        </mxCell>
        <mxCell id="Z0A67WeXVm1Wl0f02Ya7-76" value="" style="endArrow=none;html=1;entryX=0;entryY=1;entryDx=0;entryDy=0;" parent="1" source="Z0A67WeXVm1Wl0f02Ya7-2" target="Z0A67WeXVm1Wl0f02Ya7-74" edge="1">
          <mxGeometry width="50" height="50" relative="1" as="geometry">
            <mxPoint x="660" y="250" as="sourcePoint" />
            <mxPoint x="1115" y="170" as="targetPoint" />
          </mxGeometry>
        </mxCell>
        <mxCell id="Z0A67WeXVm1Wl0f02Ya7-78" value="" style="endArrow=none;html=1;entryX=0;entryY=1;entryDx=0;entryDy=0;" parent="1" source="Z0A67WeXVm1Wl0f02Ya7-2" target="Z0A67WeXVm1Wl0f02Ya7-75" edge="1">
          <mxGeometry width="50" height="50" relative="1" as="geometry">
            <mxPoint x="670" y="280" as="sourcePoint" />
            <mxPoint x="1146" y="179" as="targetPoint" />
          </mxGeometry>
        </mxCell>
        <mxCell id="nySP6CCtktx7gM4iY7YL-1" value="&lt;font style=&quot;font-size: 12px&quot;&gt;&lt;span lang=&quot;HU-HU&quot; class=&quot;TextRun SCXW112848725 BCX0&quot; style=&quot;margin: 0px ; padding: 0px ; text-align: left ; background-color: rgb(255 , 255 , 255) ; line-height: 19.425px ; font-family: &amp;#34;times new roman&amp;#34; , &amp;#34;times new roman_embeddedfont&amp;#34; , &amp;#34;times new roman_msfontservice&amp;#34; , serif&quot;&gt;Robot mozog&amp;nbsp;&lt;/span&gt;&lt;span lang=&quot;HU-HU&quot; class=&quot;TextRun SCXW112848725 BCX0&quot; style=&quot;margin: 0px ; padding: 0px ; text-align: left ; background-color: rgb(255 , 255 , 255) ; line-height: 19.425px ; font-family: &amp;#34;times new roman&amp;#34; , &amp;#34;times new roman_embeddedfont&amp;#34; , &amp;#34;times new roman_msfontservice&amp;#34; , serif&quot;&gt;&lt;span class=&quot;SpellingError SCXW112848725 BCX0&quot; style=&quot;margin: 0px ; padding: 0px ; background-repeat: repeat-x ; background-position: left bottom ; background-image: url(&amp;#34;data:image/gif;base64,R0lGODlhBQAEAJECAP////8AAAAAAAAAACH5BAEAAAIALAAAAAAFAAQAAAIIlGAXCCHrTCgAOw==&amp;#34;) ; border-bottom: 1px solid transparent ; background-color: inherit&quot;&gt;teleportkapun&lt;/span&gt;&lt;/span&gt;&lt;span lang=&quot;HU-HU&quot; class=&quot;TextRun SCXW112848725 BCX0&quot; style=&quot;margin: 0px ; padding: 0px ; text-align: left ; background-color: rgb(255 , 255 , 255) ; line-height: 19.425px ; font-family: &amp;#34;times new roman&amp;#34; , &amp;#34;times new roman_embeddedfont&amp;#34; , &amp;#34;times new roman_msfontservice&amp;#34; , serif&quot;&gt;&amp;nbsp;keresztül&lt;/span&gt;&lt;/font&gt;" style="ellipse;whiteSpace=wrap;html=1;" parent="1" vertex="1">
          <mxGeometry x="810" y="205" width="210" height="30" as="geometry" />
        </mxCell>
        <mxCell id="nySP6CCtktx7gM4iY7YL-2" value="" style="endArrow=none;html=1;entryX=0;entryY=0.5;entryDx=0;entryDy=0;" parent="1" source="Z0A67WeXVm1Wl0f02Ya7-2" target="nySP6CCtktx7gM4iY7YL-1" edge="1">
          <mxGeometry width="50" height="50" relative="1" as="geometry">
            <mxPoint x="1010" y="600" as="sourcePoint" />
            <mxPoint x="840" y="520" as="targetPoint" />
          </mxGeometry>
        </mxCell>
        <mxCell id="nySP6CCtktx7gM4iY7YL-3" value="&lt;span lang=&quot;HU-HU&quot; class=&quot;TextRun SCXW30562427 BCX0&quot; style=&quot;animation: 0s ease 0s 1 normal none running none ; appearance: none ; backface-visibility: visible ; background: none 0% 0% / auto repeat scroll padding-box border-box rgba(0 , 0 , 0 , 0) ; border: 0px none rgb(0 , 0 , 0) ; border-radius: 0px ; border-collapse: separate ; box-shadow: none ; box-sizing: content-box ; caption-side: top ; clear: none ; clip: auto ; content: normal ; cursor: text ; direction: ltr ; display: inline ; empty-cells: show ; float: none ; font-family: &amp;#34;wordvisi_msfontservice&amp;#34; , &amp;#34;times new roman&amp;#34; , &amp;#34;times new roman_embeddedfont&amp;#34; , &amp;#34;times new roman_msfontservice&amp;#34; , serif ; height: auto ; line-height: 19.425px ; list-style: outside none disc ; margin: 0px ; max-height: none ; max-width: none ; min-height: 0px ; min-width: 0px ; opacity: 1 ; outline: rgb(0 , 0 , 0) none 0px ; overflow-wrap: break-word ; overflow: visible ; padding: 0px ; perspective: none ; perspective-origin: 0px 0px ; position: static ; resize: none ; speak: normal ; table-layout: auto ; text-align: left ; text-overflow: clip ; text-shadow: none ; transform: none ; transform-origin: 0px 0px ; transform-style: flat ; transition: all 0s ease 0s ; unicode-bidi: normal ; vertical-align: baseline ; visibility: visible ; width: auto ; word-break: normal ; z-index: auto ; zoom: 1 ; border-spacing: 0px&quot;&gt;&lt;span class=&quot;NormalTextRun SCXW30562427 BCX0&quot; style=&quot;background-color: inherit&quot;&gt;&lt;font style=&quot;font-size: 12px&quot;&gt;Robot mozog szomszédos aszteroidára&lt;/font&gt;&lt;/span&gt;&lt;/span&gt;" style="ellipse;whiteSpace=wrap;html=1;" parent="1" vertex="1">
          <mxGeometry x="780" y="251.2" width="210" height="35" as="geometry" />
        </mxCell>
        <mxCell id="nySP6CCtktx7gM4iY7YL-4" value="" style="endArrow=none;html=1;entryX=0;entryY=0.5;entryDx=0;entryDy=0;" parent="1" source="Z0A67WeXVm1Wl0f02Ya7-2" target="nySP6CCtktx7gM4iY7YL-3" edge="1">
          <mxGeometry width="50" height="50" relative="1" as="geometry">
            <mxPoint x="1220" y="458.8020408163266" as="sourcePoint" />
            <mxPoint x="1074" y="341.2" as="targetPoint" />
          </mxGeometry>
        </mxCell>
        <mxCell id="nySP6CCtktx7gM4iY7YL-5" value="&lt;font style=&quot;font-size: 12px&quot;&gt;&lt;span lang=&quot;HU-HU&quot; class=&quot;TextRun SCXW105076345 BCX0&quot; style=&quot;margin: 0px ; padding: 0px ; text-align: left ; background-color: rgb(255 , 255 , 255) ; line-height: 19.425px ; font-family: &amp;#34;times new roman&amp;#34; , &amp;#34;times new roman_embeddedfont&amp;#34; , &amp;#34;times new roman_msfontservice&amp;#34; , serif&quot;&gt;Telepes lerak vasat&lt;/span&gt;&lt;/font&gt;" style="ellipse;whiteSpace=wrap;html=1;" parent="1" vertex="1">
          <mxGeometry x="40" y="286.2" width="150" height="30" as="geometry" />
        </mxCell>
        <mxCell id="nySP6CCtktx7gM4iY7YL-6" value="" style="endArrow=none;html=1;entryX=1;entryY=0.5;entryDx=0;entryDy=0;" parent="1" source="Z0A67WeXVm1Wl0f02Ya7-1" target="nySP6CCtktx7gM4iY7YL-5" edge="1">
          <mxGeometry width="50" height="50" relative="1" as="geometry">
            <mxPoint x="240" y="318.98377049180334" as="sourcePoint" />
            <mxPoint x="80" y="263.41" as="targetPoint" />
          </mxGeometry>
        </mxCell>
        <mxCell id="nySP6CCtktx7gM4iY7YL-7" value="&lt;font style=&quot;font-size: 12px&quot;&gt;&lt;span lang=&quot;HU-HU&quot; class=&quot;TextRun SCXW105076345 BCX0&quot; style=&quot;margin: 0px ; padding: 0px ; text-align: left ; background-color: rgb(255 , 255 , 255) ; line-height: 19.425px ; font-family: &amp;#34;times new roman&amp;#34; , &amp;#34;times new roman_embeddedfont&amp;#34; , &amp;#34;times new roman_msfontservice&amp;#34; , serif&quot;&gt;Telepes lerak szenet&lt;/span&gt;&lt;/font&gt;" style="ellipse;whiteSpace=wrap;html=1;" parent="1" vertex="1">
          <mxGeometry x="40" y="330" width="150" height="30" as="geometry" />
        </mxCell>
        <mxCell id="nySP6CCtktx7gM4iY7YL-8" value="" style="endArrow=none;html=1;entryX=1;entryY=0.5;entryDx=0;entryDy=0;" parent="1" source="Z0A67WeXVm1Wl0f02Ya7-1" target="nySP6CCtktx7gM4iY7YL-7" edge="1">
          <mxGeometry width="50" height="50" relative="1" as="geometry">
            <mxPoint x="230" y="370.0037704918033" as="sourcePoint" />
            <mxPoint x="70" y="314.43" as="targetPoint" />
          </mxGeometry>
        </mxCell>
        <mxCell id="nySP6CCtktx7gM4iY7YL-9" value="&lt;font style=&quot;font-size: 12px&quot;&gt;&lt;span lang=&quot;HU-HU&quot; class=&quot;TextRun SCXW175453373 BCX0&quot; style=&quot;margin: 0px ; padding: 0px ; color: rgb(0 , 0 , 0) ; font-style: normal ; font-weight: 400 ; letter-spacing: normal ; text-align: left ; text-indent: 0px ; text-transform: none ; word-spacing: 0px ; background-color: rgb(255 , 255 , 255) ; line-height: 19.425px ; font-family: &amp;#34;times new roman&amp;#34; , &amp;#34;times new roman_embeddedfont&amp;#34; , &amp;#34;times new roman_msfontservice&amp;#34; , serif&quot;&gt;&lt;span class=&quot;NormalTextRun SCXW175453373 BCX0&quot; style=&quot;margin: 0px ; padding: 0px ; background-color: inherit&quot;&gt;Telepes tétlen&lt;/span&gt;&lt;/span&gt;&lt;span class=&quot;EOP SCXW175453373 BCX0&quot; style=&quot;margin: 0px ; padding: 0px ; color: rgb(0 , 0 , 0) ; font-style: normal ; font-weight: 400 ; letter-spacing: normal ; text-align: left ; text-indent: 0px ; text-transform: none ; word-spacing: 0px ; background-color: rgb(255 , 255 , 255) ; line-height: 19.425px ; font-family: &amp;#34;times new roman&amp;#34; , &amp;#34;times new roman_embeddedfont&amp;#34; , &amp;#34;times new roman_msfontservice&amp;#34; , serif&quot;&gt;&amp;nbsp;&lt;/span&gt;&lt;/font&gt;" style="ellipse;whiteSpace=wrap;html=1;" parent="1" vertex="1">
          <mxGeometry x="530" y="430" width="110" height="30" as="geometry" />
        </mxCell>
        <mxCell id="nySP6CCtktx7gM4iY7YL-10" value="" style="endArrow=none;html=1;" parent="1" source="Z0A67WeXVm1Wl0f02Ya7-1" target="nySP6CCtktx7gM4iY7YL-9" edge="1">
          <mxGeometry width="50" height="50" relative="1" as="geometry">
            <mxPoint x="646.8285706822942" y="350" as="sourcePoint" />
            <mxPoint x="430" y="415" as="targetPoint" />
          </mxGeometry>
        </mxCell>
      </root>
    </mxGraphModel>
  </diagram>
  <diagram id="Io0cl6ys2bsEuGPakxmW" name="Page-2">
    <mxGraphModel dx="1021" dy="567" grid="1" gridSize="10" guides="1" tooltips="1" connect="1" arrows="1" fold="1" page="1" pageScale="1" pageWidth="1654" pageHeight="1169" math="0" shadow="0">
      <root>
        <mxCell id="nHfJHoz6sQPa0g7yRGmX-0" />
        <mxCell id="nHfJHoz6sQPa0g7yRGmX-1" parent="nHfJHoz6sQPa0g7yRGmX-0" />
        <mxCell id="nHfJHoz6sQPa0g7yRGmX-45" value="Marci" style="ellipse;whiteSpace=wrap;html=1;fillColor=#fff2cc;strokeColor=#d6b656;" vertex="1" parent="nHfJHoz6sQPa0g7yRGmX-1">
          <mxGeometry x="300" y="10" width="120" height="80" as="geometry" />
        </mxCell>
        <mxCell id="nHfJHoz6sQPa0g7yRGmX-2" value="Játékos" style="shape=umlActor;verticalLabelPosition=bottom;verticalAlign=top;html=1;" vertex="1" parent="nHfJHoz6sQPa0g7yRGmX-1">
          <mxGeometry x="490" y="280" width="30" height="60" as="geometry" />
        </mxCell>
        <mxCell id="nHfJHoz6sQPa0g7yRGmX-3" value="Kontroller" style="shape=umlActor;verticalLabelPosition=bottom;verticalAlign=top;html=1;" vertex="1" parent="nHfJHoz6sQPa0g7yRGmX-1">
          <mxGeometry x="620" y="265" width="30" height="60" as="geometry" />
        </mxCell>
        <mxCell id="nHfJHoz6sQPa0g7yRGmX-4" value="&lt;font style=&quot;font-size: 12px&quot;&gt;&lt;span lang=&quot;HU-HU&quot; class=&quot;TextRun SCXW227858464 BCX0&quot; style=&quot;margin: 0px ; padding: 0px ; text-align: left ; background-color: rgb(255 , 255 , 255) ; line-height: 19.425px ; font-family: &amp;#34;times new roman&amp;#34; , &amp;#34;times new roman_embeddedfont&amp;#34; , &amp;#34;times new roman_msfontservice&amp;#34; , serif&quot;&gt;Telepes lerak uránt&amp;nbsp;&lt;/span&gt;&lt;/font&gt;" style="ellipse;whiteSpace=wrap;html=1;" vertex="1" parent="nHfJHoz6sQPa0g7yRGmX-1">
          <mxGeometry x="100" y="240" width="170" height="30" as="geometry" />
        </mxCell>
        <mxCell id="nHfJHoz6sQPa0g7yRGmX-5" value="&lt;font style=&quot;font-size: 12px&quot;&gt;&lt;span lang=&quot;HU-HU&quot; class=&quot;TextRun SCXW105076345 BCX0&quot; style=&quot;margin: 0px ; padding: 0px ; text-align: left ; background-color: rgb(255 , 255 , 255) ; line-height: 19.425px ; font-family: &amp;#34;times new roman&amp;#34; , &amp;#34;times new roman_embeddedfont&amp;#34; , &amp;#34;times new roman_msfontservice&amp;#34; , serif&quot;&gt;Telepes lerak vízjeget&lt;/span&gt;&lt;/font&gt;" style="ellipse;whiteSpace=wrap;html=1;" vertex="1" parent="nHfJHoz6sQPa0g7yRGmX-1">
          <mxGeometry x="110" y="190" width="150" height="30" as="geometry" />
        </mxCell>
        <mxCell id="nHfJHoz6sQPa0g7yRGmX-6" value="&lt;font style=&quot;font-size: 12px&quot;&gt;&lt;span lang=&quot;HU-HU&quot; class=&quot;TextRun SCXW112848725 BCX0&quot; style=&quot;margin: 0px ; padding: 0px ; text-align: left ; background-color: rgb(255 , 255 , 255) ; line-height: 19.425px ; font-family: &amp;#34;times new roman&amp;#34; , &amp;#34;times new roman_embeddedfont&amp;#34; , &amp;#34;times new roman_msfontservice&amp;#34; , serif&quot;&gt;Telepes mozog&amp;nbsp;&lt;/span&gt;&lt;span lang=&quot;HU-HU&quot; class=&quot;TextRun SCXW112848725 BCX0&quot; style=&quot;margin: 0px ; padding: 0px ; text-align: left ; background-color: rgb(255 , 255 , 255) ; line-height: 19.425px ; font-family: &amp;#34;times new roman&amp;#34; , &amp;#34;times new roman_embeddedfont&amp;#34; , &amp;#34;times new roman_msfontservice&amp;#34; , serif&quot;&gt;&lt;span class=&quot;SpellingError SCXW112848725 BCX0&quot; style=&quot;margin: 0px ; padding: 0px ; background-repeat: repeat-x ; background-position: left bottom ; background-image: url(&amp;#34;data:image/gif;base64,R0lGODlhBQAEAJECAP////8AAAAAAAAAACH5BAEAAAIALAAAAAAFAAQAAAIIlGAXCCHrTCgAOw==&amp;#34;) ; border-bottom: 1px solid transparent ; background-color: inherit&quot;&gt;teleportkapun&lt;/span&gt;&lt;/span&gt;&lt;span lang=&quot;HU-HU&quot; class=&quot;TextRun SCXW112848725 BCX0&quot; style=&quot;margin: 0px ; padding: 0px ; text-align: left ; background-color: rgb(255 , 255 , 255) ; line-height: 19.425px ; font-family: &amp;#34;times new roman&amp;#34; , &amp;#34;times new roman_embeddedfont&amp;#34; , &amp;#34;times new roman_msfontservice&amp;#34; , serif&quot;&gt;&amp;nbsp;keresztül&lt;/span&gt;&lt;/font&gt;" style="ellipse;whiteSpace=wrap;html=1;" vertex="1" parent="nHfJHoz6sQPa0g7yRGmX-1">
          <mxGeometry x="920" y="530" width="210" height="30" as="geometry" />
        </mxCell>
        <mxCell id="nHfJHoz6sQPa0g7yRGmX-7" value="&lt;span lang=&quot;HU-HU&quot; class=&quot;TextRun SCXW30562427 BCX0&quot; style=&quot;animation: 0s ease 0s 1 normal none running none ; appearance: none ; backface-visibility: visible ; background: none 0% 0% / auto repeat scroll padding-box border-box rgba(0 , 0 , 0 , 0) ; border: 0px none rgb(0 , 0 , 0) ; border-radius: 0px ; border-collapse: separate ; box-shadow: none ; box-sizing: content-box ; caption-side: top ; clear: none ; clip: auto ; content: normal ; cursor: text ; direction: ltr ; display: inline ; empty-cells: show ; float: none ; font-family: &amp;#34;wordvisi_msfontservice&amp;#34; , &amp;#34;times new roman&amp;#34; , &amp;#34;times new roman_embeddedfont&amp;#34; , &amp;#34;times new roman_msfontservice&amp;#34; , serif ; height: auto ; line-height: 19.425px ; list-style: outside none disc ; margin: 0px ; max-height: none ; max-width: none ; min-height: 0px ; min-width: 0px ; opacity: 1 ; outline: rgb(0 , 0 , 0) none 0px ; overflow-wrap: break-word ; overflow: visible ; padding: 0px ; perspective: none ; perspective-origin: 0px 0px ; position: static ; resize: none ; speak: normal ; table-layout: auto ; text-align: left ; text-overflow: clip ; text-shadow: none ; transform: none ; transform-origin: 0px 0px ; transform-style: flat ; transition: all 0s ease 0s ; unicode-bidi: normal ; vertical-align: baseline ; visibility: visible ; width: auto ; word-break: normal ; z-index: auto ; zoom: 1 ; border-spacing: 0px&quot;&gt;&lt;span class=&quot;NormalTextRun SCXW30562427 BCX0&quot; style=&quot;background-color: inherit&quot;&gt;&lt;font style=&quot;font-size: 12px&quot;&gt;Telepes&amp;nbsp;&amp;nbsp;mozog szomszédos aszteroidára&lt;/font&gt;&lt;/span&gt;&lt;/span&gt;" style="ellipse;whiteSpace=wrap;html=1;" vertex="1" parent="nHfJHoz6sQPa0g7yRGmX-1">
          <mxGeometry x="980" y="115" width="210" height="35" as="geometry" />
        </mxCell>
        <mxCell id="nHfJHoz6sQPa0g7yRGmX-8" value="&lt;font style=&quot;font-size: 12px&quot;&gt;&lt;span lang=&quot;HU-HU&quot; class=&quot;TextRun SCXW157749278 BCX0&quot; style=&quot;margin: 0px ; padding: 0px ; text-align: left ; background-color: rgb(255 , 255 , 255) ; line-height: 19.425px ; font-family: &amp;#34;times new roman&amp;#34; , &amp;#34;times new roman_embeddedfont&amp;#34; , &amp;#34;times new roman_msfontservice&amp;#34; , serif&quot;&gt;&lt;span class=&quot;ContextualSpellingAndGrammarError SCXW157749278 BCX0&quot; style=&quot;margin: 0px ; padding: 0px ; background-repeat: repeat-x ; background-position: left bottom ; background-image: url(&amp;#34;data:image/gif;base64,R0lGODlhBQAEAPEDAABVzDNVzDNV/wAAACH5BAUAAAMALAAAAAAFAAQAAAIInC2QchYKQgEAOw==&amp;#34;) ; border-bottom: 1px solid transparent ; background-color: inherit&quot;&gt;Telepes&lt;/span&gt;&lt;/span&gt;&lt;span lang=&quot;HU-HU&quot; class=&quot;TextRun SCXW157749278 BCX0&quot; style=&quot;margin: 0px ; padding: 0px ; text-align: left ; background-color: rgb(255 , 255 , 255) ; line-height: 19.425px ; font-family: &amp;#34;times new roman&amp;#34; , &amp;#34;times new roman_embeddedfont&amp;#34; , &amp;#34;times new roman_msfontservice&amp;#34; , serif&quot;&gt;&amp;nbsp;bányászik aszteroidán&lt;/span&gt;&lt;/font&gt;" style="ellipse;whiteSpace=wrap;html=1;" vertex="1" parent="nHfJHoz6sQPa0g7yRGmX-1">
          <mxGeometry x="100" y="380" width="190" height="30" as="geometry" />
        </mxCell>
        <mxCell id="nHfJHoz6sQPa0g7yRGmX-9" value="&lt;font style=&quot;font-size: 12px&quot;&gt;&lt;span lang=&quot;HU-HU&quot; class=&quot;TextRun SCXW256050835 BCX0&quot; style=&quot;margin: 0px ; padding: 0px ; text-align: left ; background-color: rgb(255 , 255 , 255) ; line-height: 19.425px ; font-family: &amp;#34;times new roman&amp;#34; , &amp;#34;times new roman_embeddedfont&amp;#34; , &amp;#34;times new roman_msfontservice&amp;#34; , serif&quot;&gt;Telepes fúrja a vízjeget tartalmazó aszteroidát&amp;nbsp;&lt;/span&gt;&lt;/font&gt;" style="ellipse;whiteSpace=wrap;html=1;" vertex="1" parent="nHfJHoz6sQPa0g7yRGmX-1">
          <mxGeometry x="680" y="30" width="260" height="30" as="geometry" />
        </mxCell>
        <mxCell id="nHfJHoz6sQPa0g7yRGmX-10" value="&lt;font style=&quot;font-size: 12px&quot;&gt;&lt;span lang=&quot;HU-HU&quot; class=&quot;TextRun SCXW151800768 BCX0&quot; style=&quot;margin: 0px ; padding: 0px ; text-align: left ; background-color: rgb(255 , 255 , 255) ; line-height: 19.425px ; font-family: &amp;#34;times new roman&amp;#34; , &amp;#34;times new roman_embeddedfont&amp;#34; , &amp;#34;times new roman_msfontservice&amp;#34; , serif&quot;&gt;Telepes&amp;nbsp;&lt;/span&gt;&lt;span lang=&quot;HU-HU&quot; class=&quot;TextRun SCXW151800768 BCX0&quot; style=&quot;margin: 0px ; padding: 0px ; text-align: left ; background-color: rgb(255 , 255 , 255) ; line-height: 19.425px ; font-family: &amp;#34;times new roman&amp;#34; , &amp;#34;times new roman_embeddedfont&amp;#34; , &amp;#34;times new roman_msfontservice&amp;#34; , serif&quot;&gt;fúrja az uránt tartalmazó aszteroidát&amp;nbsp;&lt;/span&gt;&lt;/font&gt;" style="ellipse;whiteSpace=wrap;html=1;" vertex="1" parent="nHfJHoz6sQPa0g7yRGmX-1">
          <mxGeometry x="680" y="60" width="250" height="30" as="geometry" />
        </mxCell>
        <mxCell id="nHfJHoz6sQPa0g7yRGmX-11" value="&lt;font style=&quot;font-size: 12px&quot;&gt;&lt;span lang=&quot;HU-HU&quot; class=&quot;TextRun SCXW175453373 BCX0&quot; style=&quot;margin: 0px ; padding: 0px ; color: rgb(0 , 0 , 0) ; font-style: normal ; font-weight: 400 ; letter-spacing: normal ; text-align: left ; text-indent: 0px ; text-transform: none ; word-spacing: 0px ; background-color: rgb(255 , 255 , 255) ; line-height: 19.425px ; font-family: &amp;#34;times new roman&amp;#34; , &amp;#34;times new roman_embeddedfont&amp;#34; , &amp;#34;times new roman_msfontservice&amp;#34; , serif&quot;&gt;&lt;span class=&quot;NormalTextRun SCXW175453373 BCX0&quot; style=&quot;margin: 0px ; padding: 0px ; background-color: inherit&quot;&gt;Telepes robotot épít&lt;/span&gt;&lt;/span&gt;&lt;span class=&quot;EOP SCXW175453373 BCX0&quot; style=&quot;margin: 0px ; padding: 0px ; color: rgb(0 , 0 , 0) ; font-style: normal ; font-weight: 400 ; letter-spacing: normal ; text-align: left ; text-indent: 0px ; text-transform: none ; word-spacing: 0px ; background-color: rgb(255 , 255 , 255) ; line-height: 19.425px ; font-family: &amp;#34;times new roman&amp;#34; , &amp;#34;times new roman_embeddedfont&amp;#34; , &amp;#34;times new roman_msfontservice&amp;#34; , serif&quot;&gt;&amp;nbsp;&lt;/span&gt;&lt;/font&gt;" style="ellipse;whiteSpace=wrap;html=1;" vertex="1" parent="nHfJHoz6sQPa0g7yRGmX-1">
          <mxGeometry x="500" y="560" width="130" height="30" as="geometry" />
        </mxCell>
        <mxCell id="nHfJHoz6sQPa0g7yRGmX-12" value="&lt;font style=&quot;font-size: 12px&quot;&gt;&lt;span lang=&quot;HU-HU&quot; class=&quot;TextRun SCXW80752651 BCX0&quot; style=&quot;margin: 0px ; padding: 0px ; text-align: left ; background-color: rgb(255 , 255 , 255) ; line-height: 19.425px ; font-family: &amp;#34;times new roman&amp;#34; , &amp;#34;times new roman_embeddedfont&amp;#34; , &amp;#34;times new roman_msfontservice&amp;#34; , serif&quot;&gt;Telepes&amp;nbsp;&lt;/span&gt;&lt;span lang=&quot;HU-HU&quot; class=&quot;TextRun SCXW80752651 BCX0&quot; style=&quot;margin: 0px ; padding: 0px ; text-align: left ; background-color: rgb(255 , 255 , 255) ; line-height: 19.425px ; font-family: &amp;#34;times new roman&amp;#34; , &amp;#34;times new roman_embeddedfont&amp;#34; , &amp;#34;times new roman_msfontservice&amp;#34; , serif&quot;&gt;&lt;span class=&quot;SpellingError SCXW80752651 BCX0&quot; style=&quot;margin: 0px ; padding: 0px ; background-repeat: repeat-x ; background-position: left bottom ; background-image: url(&amp;#34;data:image/gif;base64,R0lGODlhBQAEAJECAP////8AAAAAAAAAACH5BAEAAAIALAAAAAAFAAQAAAIIlGAXCCHrTCgAOw==&amp;#34;) ; border-bottom: 1px solid transparent ; background-color: inherit&quot;&gt;teleportkaput&lt;/span&gt;&lt;/span&gt;&lt;span lang=&quot;HU-HU&quot; class=&quot;TextRun SCXW80752651 BCX0&quot; style=&quot;margin: 0px ; padding: 0px ; text-align: left ; background-color: rgb(255 , 255 , 255) ; line-height: 19.425px ; font-family: &amp;#34;times new roman&amp;#34; , &amp;#34;times new roman_embeddedfont&amp;#34; , &amp;#34;times new roman_msfontservice&amp;#34; , serif&quot;&gt;&amp;nbsp;épít&lt;/span&gt;&lt;/font&gt;" style="ellipse;whiteSpace=wrap;html=1;" vertex="1" parent="nHfJHoz6sQPa0g7yRGmX-1">
          <mxGeometry x="320" y="560" width="150" height="30" as="geometry" />
        </mxCell>
        <mxCell id="nHfJHoz6sQPa0g7yRGmX-13" value="&lt;font style=&quot;font-size: 12px&quot;&gt;&lt;span lang=&quot;HU-HU&quot; class=&quot;TextRun SCXW67012334 BCX0&quot; style=&quot;margin: 0px ; padding: 0px ; color: rgb(0 , 0 , 0) ; font-style: normal ; font-weight: 400 ; letter-spacing: normal ; text-align: left ; text-indent: 0px ; text-transform: none ; word-spacing: 0px ; background-color: rgb(255 , 255 , 255) ; line-height: 19.425px ; font-family: &amp;#34;times new roman&amp;#34; , &amp;#34;times new roman_embeddedfont&amp;#34; , &amp;#34;times new roman_msfontservice&amp;#34; , serif&quot;&gt;&lt;span class=&quot;NormalTextRun SCXW67012334 BCX0&quot; style=&quot;margin: 0px ; padding: 0px ; background-color: inherit&quot;&gt;Telepes lerak&lt;span&gt;&amp;nbsp;&lt;/span&gt;&lt;/span&gt;&lt;/span&gt;&lt;span lang=&quot;HU-HU&quot; class=&quot;TextRun SCXW67012334 BCX0&quot; style=&quot;margin: 0px ; padding: 0px ; color: rgb(0 , 0 , 0) ; font-style: normal ; font-weight: 400 ; letter-spacing: normal ; text-align: left ; text-indent: 0px ; text-transform: none ; word-spacing: 0px ; background-color: rgb(255 , 255 , 255) ; line-height: 19.425px ; font-family: &amp;#34;times new roman&amp;#34; , &amp;#34;times new roman_embeddedfont&amp;#34; , &amp;#34;times new roman_msfontservice&amp;#34; , serif&quot;&gt;&lt;span class=&quot;SpellingError SCXW67012334 BCX0&quot; style=&quot;margin: 0px ; padding: 0px ; background-repeat: repeat-x ; background-position: left bottom ; background-image: url(&amp;#34;data:image/gif;base64,R0lGODlhBQAEAJECAP////8AAAAAAAAAACH5BAEAAAIALAAAAAAFAAQAAAIIlGAXCCHrTCgAOw==&amp;#34;) ; border-bottom: 1px solid transparent ; background-color: inherit&quot;&gt;teleportkaput&lt;/span&gt;&lt;/span&gt;&lt;br&gt;&lt;/font&gt;" style="ellipse;whiteSpace=wrap;html=1;" vertex="1" parent="nHfJHoz6sQPa0g7yRGmX-1">
          <mxGeometry x="800" y="510" width="170" height="30" as="geometry" />
        </mxCell>
        <mxCell id="nHfJHoz6sQPa0g7yRGmX-14" value="&lt;span lang=&quot;HU-HU&quot; class=&quot;TextRun SCXW252920641 BCX0&quot; style=&quot;animation: 0s ease 0s 1 normal none running none ; appearance: none ; backface-visibility: visible ; background: none 0% 0% / auto repeat scroll padding-box border-box rgba(0 , 0 , 0 , 0) ; border: 0px none rgb(0 , 0 , 0) ; border-radius: 0px ; border-collapse: separate ; box-shadow: none ; box-sizing: content-box ; caption-side: top ; clear: none ; clip: auto ; content: normal ; cursor: text ; direction: ltr ; display: inline ; empty-cells: show ; float: none ; font-family: &amp;#34;wordvisi_msfontservice&amp;#34; , &amp;#34;times new roman&amp;#34; , &amp;#34;times new roman_embeddedfont&amp;#34; , &amp;#34;times new roman_msfontservice&amp;#34; , serif ; height: auto ; line-height: 19.425px ; list-style: outside none disc ; margin: 0px ; max-height: none ; max-width: none ; min-height: 0px ; min-width: 0px ; opacity: 1 ; outline: rgb(0 , 0 , 0) none 0px ; overflow-wrap: break-word ; overflow: visible ; padding: 0px ; perspective: none ; perspective-origin: 0px 0px ; position: static ; resize: none ; speak: normal ; table-layout: auto ; text-align: left ; text-overflow: clip ; text-shadow: none ; transform: none ; transform-origin: 0px 0px ; transform-style: flat ; transition: all 0s ease 0s ; unicode-bidi: normal ; vertical-align: baseline ; visibility: visible ; width: auto ; word-break: normal ; z-index: auto ; zoom: 1 ; border-spacing: 0px&quot;&gt;&lt;span class=&quot;NormalTextRun SCXW252920641 BCX0&quot; style=&quot;background-color: inherit&quot;&gt;&lt;font style=&quot;font-size: 12px&quot;&gt;Napvihar olyan aszteroidát ér, amin van telepes&amp;nbsp;&lt;/font&gt;&lt;/span&gt;&lt;/span&gt;" style="ellipse;whiteSpace=wrap;html=1;" vertex="1" parent="nHfJHoz6sQPa0g7yRGmX-1">
          <mxGeometry x="120" y="10" width="250" height="30" as="geometry" />
        </mxCell>
        <mxCell id="nHfJHoz6sQPa0g7yRGmX-15" value="" style="endArrow=none;html=1;entryX=1;entryY=1;entryDx=0;entryDy=0;" edge="1" parent="nHfJHoz6sQPa0g7yRGmX-1" source="nHfJHoz6sQPa0g7yRGmX-2" target="nHfJHoz6sQPa0g7yRGmX-9">
          <mxGeometry width="50" height="50" relative="1" as="geometry">
            <mxPoint x="500" y="270" as="sourcePoint" />
            <mxPoint x="475" y="150" as="targetPoint" />
          </mxGeometry>
        </mxCell>
        <mxCell id="nHfJHoz6sQPa0g7yRGmX-16" value="" style="endArrow=none;html=1;entryX=1;entryY=0.5;entryDx=0;entryDy=0;" edge="1" parent="nHfJHoz6sQPa0g7yRGmX-1" source="nHfJHoz6sQPa0g7yRGmX-2" target="nHfJHoz6sQPa0g7yRGmX-6">
          <mxGeometry width="50" height="50" relative="1" as="geometry">
            <mxPoint x="480" y="290" as="sourcePoint" />
            <mxPoint x="310" y="210" as="targetPoint" />
          </mxGeometry>
        </mxCell>
        <mxCell id="nHfJHoz6sQPa0g7yRGmX-17" value="" style="endArrow=none;html=1;entryX=1;entryY=0.5;entryDx=0;entryDy=0;" edge="1" parent="nHfJHoz6sQPa0g7yRGmX-1" source="nHfJHoz6sQPa0g7yRGmX-2" target="nHfJHoz6sQPa0g7yRGmX-7">
          <mxGeometry width="50" height="50" relative="1" as="geometry">
            <mxPoint x="490" y="270" as="sourcePoint" />
            <mxPoint x="344" y="180" as="targetPoint" />
          </mxGeometry>
        </mxCell>
        <mxCell id="nHfJHoz6sQPa0g7yRGmX-18" value="" style="endArrow=none;html=1;entryX=1;entryY=0.5;entryDx=0;entryDy=0;" edge="1" parent="nHfJHoz6sQPa0g7yRGmX-1" source="nHfJHoz6sQPa0g7yRGmX-2" target="nHfJHoz6sQPa0g7yRGmX-5">
          <mxGeometry width="50" height="50" relative="1" as="geometry">
            <mxPoint x="480" y="300" as="sourcePoint" />
            <mxPoint x="330" y="250" as="targetPoint" />
          </mxGeometry>
        </mxCell>
        <mxCell id="nHfJHoz6sQPa0g7yRGmX-19" value="" style="endArrow=none;html=1;entryX=1;entryY=0.5;entryDx=0;entryDy=0;" edge="1" parent="nHfJHoz6sQPa0g7yRGmX-1" source="nHfJHoz6sQPa0g7yRGmX-2" target="nHfJHoz6sQPa0g7yRGmX-4">
          <mxGeometry width="50" height="50" relative="1" as="geometry">
            <mxPoint x="490" y="310" as="sourcePoint" />
            <mxPoint x="340" y="305" as="targetPoint" />
          </mxGeometry>
        </mxCell>
        <mxCell id="nHfJHoz6sQPa0g7yRGmX-20" value="" style="endArrow=none;html=1;entryX=1;entryY=0.5;entryDx=0;entryDy=0;" edge="1" parent="nHfJHoz6sQPa0g7yRGmX-1" source="nHfJHoz6sQPa0g7yRGmX-2" target="nHfJHoz6sQPa0g7yRGmX-8">
          <mxGeometry width="50" height="50" relative="1" as="geometry">
            <mxPoint x="490" y="330" as="sourcePoint" />
            <mxPoint x="420" y="380" as="targetPoint" />
          </mxGeometry>
        </mxCell>
        <mxCell id="nHfJHoz6sQPa0g7yRGmX-21" value="" style="endArrow=none;html=1;" edge="1" parent="nHfJHoz6sQPa0g7yRGmX-1" source="nHfJHoz6sQPa0g7yRGmX-2" target="nHfJHoz6sQPa0g7yRGmX-13">
          <mxGeometry width="50" height="50" relative="1" as="geometry">
            <mxPoint x="480" y="350" as="sourcePoint" />
            <mxPoint x="470" y="420" as="targetPoint" />
          </mxGeometry>
        </mxCell>
        <mxCell id="nHfJHoz6sQPa0g7yRGmX-22" value="" style="endArrow=none;html=1;entryX=0;entryY=0.5;entryDx=0;entryDy=0;" edge="1" parent="nHfJHoz6sQPa0g7yRGmX-1" source="nHfJHoz6sQPa0g7yRGmX-3" target="nHfJHoz6sQPa0g7yRGmX-26">
          <mxGeometry width="50" height="50" relative="1" as="geometry">
            <mxPoint x="670" y="330" as="sourcePoint" />
            <mxPoint x="697" y="400" as="targetPoint" />
          </mxGeometry>
        </mxCell>
        <mxCell id="nHfJHoz6sQPa0g7yRGmX-23" value="" style="endArrow=none;html=1;entryX=0;entryY=0.5;entryDx=0;entryDy=0;" edge="1" parent="nHfJHoz6sQPa0g7yRGmX-1" source="nHfJHoz6sQPa0g7yRGmX-3" target="nHfJHoz6sQPa0g7yRGmX-14">
          <mxGeometry width="50" height="50" relative="1" as="geometry">
            <mxPoint x="670" y="320" as="sourcePoint" />
            <mxPoint x="690" y="237.5" as="targetPoint" />
          </mxGeometry>
        </mxCell>
        <mxCell id="nHfJHoz6sQPa0g7yRGmX-24" value="" style="endArrow=none;html=1;" edge="1" parent="nHfJHoz6sQPa0g7yRGmX-1" source="nHfJHoz6sQPa0g7yRGmX-2" target="nHfJHoz6sQPa0g7yRGmX-12">
          <mxGeometry width="50" height="50" relative="1" as="geometry">
            <mxPoint x="480" y="370" as="sourcePoint" />
            <mxPoint x="215" y="340" as="targetPoint" />
          </mxGeometry>
        </mxCell>
        <mxCell id="nHfJHoz6sQPa0g7yRGmX-25" value="" style="endArrow=none;html=1;" edge="1" parent="nHfJHoz6sQPa0g7yRGmX-1" source="nHfJHoz6sQPa0g7yRGmX-2" target="nHfJHoz6sQPa0g7yRGmX-11">
          <mxGeometry width="50" height="50" relative="1" as="geometry">
            <mxPoint x="490" y="380" as="sourcePoint" />
            <mxPoint x="290" y="405" as="targetPoint" />
          </mxGeometry>
        </mxCell>
        <mxCell id="nHfJHoz6sQPa0g7yRGmX-26" value="&lt;span lang=&quot;HU-HU&quot; class=&quot;TextRun SCXW252920641 BCX0&quot; style=&quot;animation: 0s ease 0s 1 normal none running none ; appearance: none ; backface-visibility: visible ; background: none 0% 0% / auto repeat scroll padding-box border-box rgba(0 , 0 , 0 , 0) ; border: 0px none rgb(0 , 0 , 0) ; border-radius: 0px ; border-collapse: separate ; box-shadow: none ; box-sizing: content-box ; caption-side: top ; clear: none ; clip: auto ; content: normal ; cursor: text ; direction: ltr ; display: inline ; empty-cells: show ; float: none ; font-family: &amp;#34;wordvisi_msfontservice&amp;#34; , &amp;#34;times new roman&amp;#34; , &amp;#34;times new roman_embeddedfont&amp;#34; , &amp;#34;times new roman_msfontservice&amp;#34; , serif ; height: auto ; line-height: 19.425px ; list-style: outside none disc ; margin: 0px ; max-height: none ; max-width: none ; min-height: 0px ; min-width: 0px ; opacity: 1 ; outline: rgb(0 , 0 , 0) none 0px ; overflow-wrap: break-word ; overflow: visible ; padding: 0px ; perspective: none ; perspective-origin: 0px 0px ; position: static ; resize: none ; speak: normal ; table-layout: auto ; text-align: left ; text-overflow: clip ; text-shadow: none ; transform: none ; transform-origin: 0px 0px ; transform-style: flat ; transition: all 0s ease 0s ; unicode-bidi: normal ; vertical-align: baseline ; visibility: visible ; width: auto ; word-break: normal ; z-index: auto ; zoom: 1 ; border-spacing: 0px&quot;&gt;&lt;span class=&quot;NormalTextRun SCXW252920641 BCX0&quot; style=&quot;background-color: inherit&quot;&gt;&lt;font style=&quot;font-size: 12px&quot;&gt;Napvihar olyan aszteroidát ér, amin van robot&lt;/font&gt;&lt;/span&gt;&lt;/span&gt;" style="ellipse;whiteSpace=wrap;html=1;" vertex="1" parent="nHfJHoz6sQPa0g7yRGmX-1">
          <mxGeometry x="280" y="90" width="250" height="40" as="geometry" />
        </mxCell>
        <mxCell id="nHfJHoz6sQPa0g7yRGmX-27" value="" style="endArrow=none;html=1;" edge="1" parent="nHfJHoz6sQPa0g7yRGmX-1" source="nHfJHoz6sQPa0g7yRGmX-2" target="nHfJHoz6sQPa0g7yRGmX-10">
          <mxGeometry width="50" height="50" relative="1" as="geometry">
            <mxPoint x="510" y="260" as="sourcePoint" />
            <mxPoint x="506" y="159" as="targetPoint" />
          </mxGeometry>
        </mxCell>
        <mxCell id="nHfJHoz6sQPa0g7yRGmX-28" value="&lt;font style=&quot;font-size: 12px&quot;&gt;&lt;span lang=&quot;HU-HU&quot; class=&quot;TextRun SCXW256050835 BCX0&quot; style=&quot;margin: 0px ; padding: 0px ; text-align: left ; background-color: rgb(255 , 255 , 255) ; line-height: 19.425px ; font-family: &amp;#34;times new roman&amp;#34; , &amp;#34;times new roman_embeddedfont&amp;#34; , &amp;#34;times new roman_msfontservice&amp;#34; , serif&quot;&gt;Robot fúrja a vízjeget tartalmazó aszteroidát&amp;nbsp;&lt;/span&gt;&lt;/font&gt;" style="ellipse;whiteSpace=wrap;html=1;" vertex="1" parent="nHfJHoz6sQPa0g7yRGmX-1">
          <mxGeometry x="640" y="100" width="270" height="30" as="geometry" />
        </mxCell>
        <mxCell id="nHfJHoz6sQPa0g7yRGmX-29" value="&lt;font style=&quot;font-size: 12px&quot;&gt;&lt;span lang=&quot;HU-HU&quot; class=&quot;TextRun SCXW151800768 BCX0&quot; style=&quot;margin: 0px ; padding: 0px ; text-align: left ; background-color: rgb(255 , 255 , 255) ; line-height: 19.425px ; font-family: &amp;#34;times new roman&amp;#34; , &amp;#34;times new roman_embeddedfont&amp;#34; , &amp;#34;times new roman_msfontservice&amp;#34; , serif&quot;&gt;Robot&amp;nbsp;&lt;/span&gt;&lt;span lang=&quot;HU-HU&quot; class=&quot;TextRun SCXW151800768 BCX0&quot; style=&quot;margin: 0px ; padding: 0px ; text-align: left ; background-color: rgb(255 , 255 , 255) ; line-height: 19.425px ; font-family: &amp;#34;times new roman&amp;#34; , &amp;#34;times new roman_embeddedfont&amp;#34; , &amp;#34;times new roman_msfontservice&amp;#34; , serif&quot;&gt;fúrja az uránt tartalmazó aszteroidát&amp;nbsp;&lt;/span&gt;&lt;/font&gt;" style="ellipse;whiteSpace=wrap;html=1;" vertex="1" parent="nHfJHoz6sQPa0g7yRGmX-1">
          <mxGeometry x="730" y="150" width="250" height="30" as="geometry" />
        </mxCell>
        <mxCell id="nHfJHoz6sQPa0g7yRGmX-30" value="" style="endArrow=none;html=1;entryX=0;entryY=1;entryDx=0;entryDy=0;" edge="1" parent="nHfJHoz6sQPa0g7yRGmX-1" source="nHfJHoz6sQPa0g7yRGmX-3" target="nHfJHoz6sQPa0g7yRGmX-28">
          <mxGeometry width="50" height="50" relative="1" as="geometry">
            <mxPoint x="660" y="250" as="sourcePoint" />
            <mxPoint x="1115" y="170" as="targetPoint" />
          </mxGeometry>
        </mxCell>
        <mxCell id="nHfJHoz6sQPa0g7yRGmX-31" value="" style="endArrow=none;html=1;entryX=0;entryY=1;entryDx=0;entryDy=0;" edge="1" parent="nHfJHoz6sQPa0g7yRGmX-1" source="nHfJHoz6sQPa0g7yRGmX-3" target="nHfJHoz6sQPa0g7yRGmX-29">
          <mxGeometry width="50" height="50" relative="1" as="geometry">
            <mxPoint x="670" y="280" as="sourcePoint" />
            <mxPoint x="1146" y="179" as="targetPoint" />
          </mxGeometry>
        </mxCell>
        <mxCell id="nHfJHoz6sQPa0g7yRGmX-32" value="&lt;font style=&quot;font-size: 12px&quot;&gt;&lt;span lang=&quot;HU-HU&quot; class=&quot;TextRun SCXW112848725 BCX0&quot; style=&quot;margin: 0px ; padding: 0px ; text-align: left ; background-color: rgb(255 , 255 , 255) ; line-height: 19.425px ; font-family: &amp;#34;times new roman&amp;#34; , &amp;#34;times new roman_embeddedfont&amp;#34; , &amp;#34;times new roman_msfontservice&amp;#34; , serif&quot;&gt;Robot mozog&amp;nbsp;&lt;/span&gt;&lt;span lang=&quot;HU-HU&quot; class=&quot;TextRun SCXW112848725 BCX0&quot; style=&quot;margin: 0px ; padding: 0px ; text-align: left ; background-color: rgb(255 , 255 , 255) ; line-height: 19.425px ; font-family: &amp;#34;times new roman&amp;#34; , &amp;#34;times new roman_embeddedfont&amp;#34; , &amp;#34;times new roman_msfontservice&amp;#34; , serif&quot;&gt;&lt;span class=&quot;SpellingError SCXW112848725 BCX0&quot; style=&quot;margin: 0px ; padding: 0px ; background-repeat: repeat-x ; background-position: left bottom ; background-image: url(&amp;#34;data:image/gif;base64,R0lGODlhBQAEAJECAP////8AAAAAAAAAACH5BAEAAAIALAAAAAAFAAQAAAIIlGAXCCHrTCgAOw==&amp;#34;) ; border-bottom: 1px solid transparent ; background-color: inherit&quot;&gt;teleportkapun&lt;/span&gt;&lt;/span&gt;&lt;span lang=&quot;HU-HU&quot; class=&quot;TextRun SCXW112848725 BCX0&quot; style=&quot;margin: 0px ; padding: 0px ; text-align: left ; background-color: rgb(255 , 255 , 255) ; line-height: 19.425px ; font-family: &amp;#34;times new roman&amp;#34; , &amp;#34;times new roman_embeddedfont&amp;#34; , &amp;#34;times new roman_msfontservice&amp;#34; , serif&quot;&gt;&amp;nbsp;keresztül&lt;/span&gt;&lt;/font&gt;" style="ellipse;whiteSpace=wrap;html=1;" vertex="1" parent="nHfJHoz6sQPa0g7yRGmX-1">
          <mxGeometry x="827" y="560" width="210" height="30" as="geometry" />
        </mxCell>
        <mxCell id="nHfJHoz6sQPa0g7yRGmX-33" value="" style="endArrow=none;html=1;entryX=0;entryY=0.5;entryDx=0;entryDy=0;" edge="1" parent="nHfJHoz6sQPa0g7yRGmX-1" source="nHfJHoz6sQPa0g7yRGmX-3" target="nHfJHoz6sQPa0g7yRGmX-32">
          <mxGeometry width="50" height="50" relative="1" as="geometry">
            <mxPoint x="1010" y="600" as="sourcePoint" />
            <mxPoint x="840" y="520" as="targetPoint" />
          </mxGeometry>
        </mxCell>
        <mxCell id="nHfJHoz6sQPa0g7yRGmX-34" value="&lt;span lang=&quot;HU-HU&quot; class=&quot;TextRun SCXW30562427 BCX0&quot; style=&quot;animation: 0s ease 0s 1 normal none running none ; appearance: none ; backface-visibility: visible ; background: none 0% 0% / auto repeat scroll padding-box border-box rgba(0 , 0 , 0 , 0) ; border: 0px none rgb(0 , 0 , 0) ; border-radius: 0px ; border-collapse: separate ; box-shadow: none ; box-sizing: content-box ; caption-side: top ; clear: none ; clip: auto ; content: normal ; cursor: text ; direction: ltr ; display: inline ; empty-cells: show ; float: none ; font-family: &amp;#34;wordvisi_msfontservice&amp;#34; , &amp;#34;times new roman&amp;#34; , &amp;#34;times new roman_embeddedfont&amp;#34; , &amp;#34;times new roman_msfontservice&amp;#34; , serif ; height: auto ; line-height: 19.425px ; list-style: outside none disc ; margin: 0px ; max-height: none ; max-width: none ; min-height: 0px ; min-width: 0px ; opacity: 1 ; outline: rgb(0 , 0 , 0) none 0px ; overflow-wrap: break-word ; overflow: visible ; padding: 0px ; perspective: none ; perspective-origin: 0px 0px ; position: static ; resize: none ; speak: normal ; table-layout: auto ; text-align: left ; text-overflow: clip ; text-shadow: none ; transform: none ; transform-origin: 0px 0px ; transform-style: flat ; transition: all 0s ease 0s ; unicode-bidi: normal ; vertical-align: baseline ; visibility: visible ; width: auto ; word-break: normal ; z-index: auto ; zoom: 1 ; border-spacing: 0px&quot;&gt;&lt;span class=&quot;NormalTextRun SCXW30562427 BCX0&quot; style=&quot;background-color: inherit&quot;&gt;&lt;font style=&quot;font-size: 12px&quot;&gt;Robot mozog szomszédos aszteroidára&lt;/font&gt;&lt;/span&gt;&lt;/span&gt;" style="ellipse;whiteSpace=wrap;html=1;" vertex="1" parent="nHfJHoz6sQPa0g7yRGmX-1">
          <mxGeometry x="960" y="170" width="210" height="35" as="geometry" />
        </mxCell>
        <mxCell id="nHfJHoz6sQPa0g7yRGmX-35" value="" style="endArrow=none;html=1;entryX=0;entryY=0.5;entryDx=0;entryDy=0;" edge="1" parent="nHfJHoz6sQPa0g7yRGmX-1" source="nHfJHoz6sQPa0g7yRGmX-3" target="nHfJHoz6sQPa0g7yRGmX-34">
          <mxGeometry width="50" height="50" relative="1" as="geometry">
            <mxPoint x="1220" y="458.8020408163266" as="sourcePoint" />
            <mxPoint x="1074" y="341.2" as="targetPoint" />
          </mxGeometry>
        </mxCell>
        <mxCell id="nHfJHoz6sQPa0g7yRGmX-36" value="&lt;font style=&quot;font-size: 12px&quot;&gt;&lt;span lang=&quot;HU-HU&quot; class=&quot;TextRun SCXW105076345 BCX0&quot; style=&quot;margin: 0px ; padding: 0px ; text-align: left ; background-color: rgb(255 , 255 , 255) ; line-height: 19.425px ; font-family: &amp;#34;times new roman&amp;#34; , &amp;#34;times new roman_embeddedfont&amp;#34; , &amp;#34;times new roman_msfontservice&amp;#34; , serif&quot;&gt;Telepes lerak vasat&lt;/span&gt;&lt;/font&gt;" style="ellipse;whiteSpace=wrap;html=1;" vertex="1" parent="nHfJHoz6sQPa0g7yRGmX-1">
          <mxGeometry x="110" y="286.2" width="150" height="30" as="geometry" />
        </mxCell>
        <mxCell id="nHfJHoz6sQPa0g7yRGmX-37" value="" style="endArrow=none;html=1;entryX=1;entryY=0.5;entryDx=0;entryDy=0;" edge="1" parent="nHfJHoz6sQPa0g7yRGmX-1" source="nHfJHoz6sQPa0g7yRGmX-2" target="nHfJHoz6sQPa0g7yRGmX-36">
          <mxGeometry width="50" height="50" relative="1" as="geometry">
            <mxPoint x="240" y="318.98377049180334" as="sourcePoint" />
            <mxPoint x="80" y="263.41" as="targetPoint" />
          </mxGeometry>
        </mxCell>
        <mxCell id="nHfJHoz6sQPa0g7yRGmX-38" value="&lt;font style=&quot;font-size: 12px&quot;&gt;&lt;span lang=&quot;HU-HU&quot; class=&quot;TextRun SCXW105076345 BCX0&quot; style=&quot;margin: 0px ; padding: 0px ; text-align: left ; background-color: rgb(255 , 255 , 255) ; line-height: 19.425px ; font-family: &amp;#34;times new roman&amp;#34; , &amp;#34;times new roman_embeddedfont&amp;#34; , &amp;#34;times new roman_msfontservice&amp;#34; , serif&quot;&gt;Telepes lerak szenet&lt;/span&gt;&lt;/font&gt;" style="ellipse;whiteSpace=wrap;html=1;" vertex="1" parent="nHfJHoz6sQPa0g7yRGmX-1">
          <mxGeometry x="110" y="330" width="150" height="30" as="geometry" />
        </mxCell>
        <mxCell id="nHfJHoz6sQPa0g7yRGmX-39" value="" style="endArrow=none;html=1;entryX=1;entryY=0.5;entryDx=0;entryDy=0;" edge="1" parent="nHfJHoz6sQPa0g7yRGmX-1" source="nHfJHoz6sQPa0g7yRGmX-2" target="nHfJHoz6sQPa0g7yRGmX-38">
          <mxGeometry width="50" height="50" relative="1" as="geometry">
            <mxPoint x="230" y="370.0037704918033" as="sourcePoint" />
            <mxPoint x="70" y="314.43" as="targetPoint" />
          </mxGeometry>
        </mxCell>
        <mxCell id="nHfJHoz6sQPa0g7yRGmX-40" value="&lt;font style=&quot;font-size: 12px&quot;&gt;&lt;span lang=&quot;HU-HU&quot; class=&quot;TextRun SCXW175453373 BCX0&quot; style=&quot;margin: 0px ; padding: 0px ; color: rgb(0 , 0 , 0) ; font-style: normal ; font-weight: 400 ; letter-spacing: normal ; text-align: left ; text-indent: 0px ; text-transform: none ; word-spacing: 0px ; background-color: rgb(255 , 255 , 255) ; line-height: 19.425px ; font-family: &amp;#34;times new roman&amp;#34; , &amp;#34;times new roman_embeddedfont&amp;#34; , &amp;#34;times new roman_msfontservice&amp;#34; , serif&quot;&gt;&lt;span class=&quot;NormalTextRun SCXW175453373 BCX0&quot; style=&quot;margin: 0px ; padding: 0px ; background-color: inherit&quot;&gt;Telepes tétlen&lt;/span&gt;&lt;/span&gt;&lt;span class=&quot;EOP SCXW175453373 BCX0&quot; style=&quot;margin: 0px ; padding: 0px ; color: rgb(0 , 0 , 0) ; font-style: normal ; font-weight: 400 ; letter-spacing: normal ; text-align: left ; text-indent: 0px ; text-transform: none ; word-spacing: 0px ; background-color: rgb(255 , 255 , 255) ; line-height: 19.425px ; font-family: &amp;#34;times new roman&amp;#34; , &amp;#34;times new roman_embeddedfont&amp;#34; , &amp;#34;times new roman_msfontservice&amp;#34; , serif&quot;&gt;&amp;nbsp;&lt;/span&gt;&lt;/font&gt;" style="ellipse;whiteSpace=wrap;html=1;" vertex="1" parent="nHfJHoz6sQPa0g7yRGmX-1">
          <mxGeometry x="130" y="430" width="110" height="30" as="geometry" />
        </mxCell>
        <mxCell id="nHfJHoz6sQPa0g7yRGmX-41" value="" style="endArrow=none;html=1;" edge="1" parent="nHfJHoz6sQPa0g7yRGmX-1" source="nHfJHoz6sQPa0g7yRGmX-2" target="nHfJHoz6sQPa0g7yRGmX-40">
          <mxGeometry width="50" height="50" relative="1" as="geometry">
            <mxPoint x="646.8285706822942" y="350" as="sourcePoint" />
            <mxPoint x="430" y="415" as="targetPoint" />
          </mxGeometry>
        </mxCell>
        <mxCell id="nHfJHoz6sQPa0g7yRGmX-42" value="Bence" style="ellipse;whiteSpace=wrap;html=1;fillColor=#fff2cc;strokeColor=#d6b656;" vertex="1" parent="nHfJHoz6sQPa0g7yRGmX-1">
          <mxGeometry x="940" y="20" width="120" height="80" as="geometry" />
        </mxCell>
        <mxCell id="nHfJHoz6sQPa0g7yRGmX-43" value="Abosa" style="ellipse;whiteSpace=wrap;html=1;fillColor=#fff2cc;strokeColor=#d6b656;" vertex="1" parent="nHfJHoz6sQPa0g7yRGmX-1">
          <mxGeometry x="910" y="430" width="120" height="80" as="geometry" />
        </mxCell>
        <mxCell id="nHfJHoz6sQPa0g7yRGmX-44" style="edgeStyle=orthogonalEdgeStyle;rounded=0;orthogonalLoop=1;jettySize=auto;html=1;exitX=0.5;exitY=1;exitDx=0;exitDy=0;" edge="1" parent="nHfJHoz6sQPa0g7yRGmX-1" source="nHfJHoz6sQPa0g7yRGmX-14" target="nHfJHoz6sQPa0g7yRGmX-14">
          <mxGeometry relative="1" as="geometry" />
        </mxCell>
        <mxCell id="nHfJHoz6sQPa0g7yRGmX-46" value="Maya" style="ellipse;whiteSpace=wrap;html=1;fillColor=#fff2cc;strokeColor=#d6b656;" vertex="1" parent="nHfJHoz6sQPa0g7yRGmX-1">
          <mxGeometry y="270" width="120" height="80" as="geometry" />
        </mxCell>
        <mxCell id="nHfJHoz6sQPa0g7yRGmX-47" value="Peti" style="ellipse;whiteSpace=wrap;html=1;fillColor=#fff2cc;strokeColor=#d6b656;" vertex="1" parent="nHfJHoz6sQPa0g7yRGmX-1">
          <mxGeometry x="460" y="600" width="120" height="80" as="geometry" />
        </mxCell>
      </root>
    </mxGraphModel>
  </diagram>
</mxfile>
